<svg xmlns="http://www.w3.org/2000/svg" viewBox="0 0 340 210" width="100%" font-family="-apple-system,BlinkMacSystemFont,Segoe UI,sans-serif" font-size="11"><text x="62" y="18" font-size="12.5" font-weight="600" fill="#1a1a1a">Short put</text><line x1="126.0" y1="164" x2="126.0" y2="34" stroke="#d8d4cc" stroke-width="0.6"/><text x="126.0" y="179" text-anchor="middle" fill="#5b5b5b">90</text><line x1="190.0" y1="164" x2="190.0" y2="34" stroke="#d8d4cc" stroke-width="0.6"/><text x="190.0" y="179" text-anchor="middle" fill="#5b5b5b">100</text><line x1="254.0" y1="164" x2="254.0" y2="34" stroke="#d8d4cc" stroke-width="0.6"/><text x="254.0" y="179" text-anchor="middle" fill="#5b5b5b">110</text><line x1="62" y1="145.4" x2="318" y2="145.4" stroke="#d8d4cc" stroke-width="0.6"/><text x="55" y="148.9" text-anchor="end" fill="#5b5b5b">-10</text><line x1="62" y1="99.0" x2="318" y2="99.0" stroke="#d8d4cc" stroke-width="0.6"/><text x="55" y="102.5" text-anchor="end" fill="#5b5b5b">0</text><line x1="62" y1="52.6" x2="318" y2="52.6" stroke="#d8d4cc" stroke-width="0.6"/><text x="55" y="56.1" text-anchor="end" fill="#5b5b5b">10</text><line x1="62" y1="99.0" x2="318" y2="99.0" stroke="#1a1a1a" stroke-width="1.1"/><line x1="190.0" y1="164" x2="190.0" y2="34" stroke="#5b5b5b" stroke-width="0.9" stroke-dasharray="3 3"/><text x="194.0" y="45" fill="#5b5b5b" font-size="10">strike</text><line x1="62" y1="164" x2="318" y2="164" stroke="#1a1a1a" stroke-width="1"/><line x1="62" y1="164" x2="62" y2="34" stroke="#1a1a1a" stroke-width="1"/><polyline points="62.0,173.3 65.2,171.0 68.4,168.6 71.6,166.3 74.8,164.0 78.0,161.7 81.2,159.4 84.4,157.0 87.6,154.7 90.8,152.4 94.0,150.1 97.2,147.8 100.4,145.4 103.6,143.1 106.8,140.8 110.0,138.5 113.2,136.1 116.4,133.8 119.6,131.5 122.8,129.2 126.0,126.9 129.2,124.5 132.4,122.2 135.6,119.9 138.8,117.6 142.0,115.2 145.2,112.9 148.4,110.6 151.6,108.3 154.8,106.0 158.0,103.6 161.2,101.3 164.4,99.0 167.6,96.7 170.8,94.4 174.0,92.0 177.2,89.7 180.4,87.4 183.6,85.1 186.8,82.8 190.0,80.4 193.2,80.4 196.4,80.4 199.6,80.4 202.8,80.4 206.0,80.4 209.2,80.4 212.4,80.4 215.6,80.4 218.8,80.4 222.0,80.4 225.2,80.4 228.4,80.4 231.6,80.4 234.8,80.4 238.0,80.4 241.2,80.4 244.4,80.4 247.6,80.4 250.8,80.4 254.0,80.4 257.2,80.4 260.4,80.4 263.6,80.4 266.8,80.4 270.0,80.4 273.2,80.4 276.4,80.4 279.6,80.4 282.8,80.4 286.0,80.4 289.2,80.4 292.4,80.4 295.6,80.4 298.8,80.4 302.0,80.4 305.2,80.4 308.4,80.4 311.6,80.4 314.8,80.4 318.0,80.4" fill="none" stroke="#7a5c2e" stroke-width="2" stroke-linejoin="round"/><line x1="168" y1="40" x2="186" y2="40" stroke="#7a5c2e" stroke-width="2.4"/><text x="191" y="43.5" fill="#1a1a1a" font-size="10.5">Short put</text><text x="190" y="202" text-anchor="middle" fill="#5b5b5b" font-size="10.5"></text><text transform="translate(14,99) rotate(-90)" text-anchor="middle" fill="#5b5b5b" font-size="10.5"></text></svg>