<svg xmlns="http://www.w3.org/2000/svg" viewBox="0 0 340 215" width="100%" font-family="-apple-system,BlinkMacSystemFont,Segoe UI,sans-serif" font-size="11"><text x="62" y="18" font-size="12.5" font-weight="600" fill="#1a1a1a">Iron condor (sell 92/88 put spread + 108/112 call spread, credit 3)</text><line x1="126.0" y1="169" x2="126.0" y2="34" stroke="#d8d4cc" stroke-width="0.6"/><text x="126.0" y="184" text-anchor="middle" fill="#5b5b5b">90</text><line x1="190.0" y1="169" x2="190.0" y2="34" stroke="#d8d4cc" stroke-width="0.6"/><text x="190.0" y="184" text-anchor="middle" fill="#5b5b5b">100</text><line x1="254.0" y1="169" x2="254.0" y2="34" stroke="#d8d4cc" stroke-width="0.6"/><text x="254.0" y="184" text-anchor="middle" fill="#5b5b5b">110</text><line x1="62" y1="146.5" x2="318" y2="146.5" stroke="#d8d4cc" stroke-width="0.6"/><text x="55" y="150.0" text-anchor="end" fill="#5b5b5b">-4</text><line x1="62" y1="101.5" x2="318" y2="101.5" stroke="#d8d4cc" stroke-width="0.6"/><text x="55" y="105.0" text-anchor="end" fill="#5b5b5b">0</text><line x1="62" y1="56.5" x2="318" y2="56.5" stroke="#d8d4cc" stroke-width="0.6"/><text x="55" y="60.0" text-anchor="end" fill="#5b5b5b">4</text><line x1="62" y1="101.5" x2="318" y2="101.5" stroke="#1a1a1a" stroke-width="1.1"/><line x1="62" y1="169" x2="318" y2="169" stroke="#1a1a1a" stroke-width="1"/><line x1="62" y1="169" x2="62" y2="34" stroke="#1a1a1a" stroke-width="1"/><polyline points="62.0,112.8 65.2,112.8 68.4,112.8 71.6,112.8 74.8,112.8 78.0,112.8 81.2,112.8 84.4,112.8 87.6,112.8 90.8,112.8 94.0,112.8 97.2,112.8 100.4,112.8 103.6,112.8 106.8,112.8 110.0,112.8 113.2,112.8 116.4,107.1 119.6,101.5 122.8,95.9 126.0,90.2 129.2,84.6 132.4,79.0 135.6,73.4 138.8,67.8 142.0,67.8 145.2,67.8 148.4,67.8 151.6,67.8 154.8,67.8 158.0,67.8 161.2,67.8 164.4,67.8 167.6,67.8 170.8,67.8 174.0,67.8 177.2,67.8 180.4,67.8 183.6,67.8 186.8,67.8 190.0,67.8 193.2,67.8 196.4,67.8 199.6,67.8 202.8,67.8 206.0,67.8 209.2,67.8 212.4,67.8 215.6,67.8 218.8,67.8 222.0,67.8 225.2,67.8 228.4,67.8 231.6,67.8 234.8,67.8 238.0,67.8 241.2,67.8 244.4,73.4 247.6,79.0 250.8,84.6 254.0,90.2 257.2,95.9 260.4,101.5 263.6,107.1 266.8,112.8 270.0,112.8 273.2,112.8 276.4,112.8 279.6,112.8 282.8,112.8 286.0,112.8 289.2,112.8 292.4,112.8 295.6,112.8 298.8,112.8 302.0,112.8 305.2,112.8 308.4,112.8 311.6,112.8 314.8,112.8 318.0,112.8" fill="none" stroke="#2f6f4f" stroke-width="2.2" stroke-linejoin="round"/><text x="190.0" y="49.8" text-anchor="middle" fill="#7a5c2e" font-size="10.5">keep 3 if it stays 92–108</text><text x="190" y="207" text-anchor="middle" fill="#5b5b5b" font-size="10.5"></text><text transform="translate(14,102) rotate(-90)" text-anchor="middle" fill="#5b5b5b" font-size="10.5"></text></svg>