<svg xmlns="http://www.w3.org/2000/svg" viewBox="0 0 680 320" width="100%" font-family="-apple-system,BlinkMacSystemFont,Segoe UI,sans-serif" font-size="11"><text x="62" y="18" font-size="12.5" font-weight="600" fill="#1a1a1a">Figure L4 · Leveraged ETFs pay a variance tax every day: −12% a year at 20% vol for a 3×, −54% at 60%</text><line x1="133.5" y1="274" x2="133.5" y2="34" stroke="#d8d4cc" stroke-width="0.6"/><text x="133.5" y="289" text-anchor="middle" fill="#5b5b5b">16</text><line x1="181.2" y1="274" x2="181.2" y2="34" stroke="#d8d4cc" stroke-width="0.6"/><text x="181.2" y="289" text-anchor="middle" fill="#5b5b5b">20</text><line x1="300.4" y1="274" x2="300.4" y2="34" stroke="#d8d4cc" stroke-width="0.6"/><text x="300.4" y="289" text-anchor="middle" fill="#5b5b5b">30</text><line x1="419.6" y1="274" x2="419.6" y2="34" stroke="#d8d4cc" stroke-width="0.6"/><text x="419.6" y="289" text-anchor="middle" fill="#5b5b5b">40</text><line x1="538.8" y1="274" x2="538.8" y2="34" stroke="#d8d4cc" stroke-width="0.6"/><text x="538.8" y="289" text-anchor="middle" fill="#5b5b5b">50</text><line x1="658.0" y1="274" x2="658.0" y2="34" stroke="#d8d4cc" stroke-width="0.6"/><text x="658.0" y="289" text-anchor="middle" fill="#5b5b5b">60</text><line x1="62" y1="239.7" x2="658" y2="239.7" stroke="#d8d4cc" stroke-width="0.6"/><text x="55" y="243.2" text-anchor="end" fill="#5b5b5b">-60</text><line x1="62" y1="171.1" x2="658" y2="171.1" stroke="#d8d4cc" stroke-width="0.6"/><text x="55" y="174.6" text-anchor="end" fill="#5b5b5b">-40</text><line x1="62" y1="102.6" x2="658" y2="102.6" stroke="#d8d4cc" stroke-width="0.6"/><text x="55" y="106.1" text-anchor="end" fill="#5b5b5b">-20</text><line x1="62" y1="34.0" x2="658" y2="34.0" stroke="#d8d4cc" stroke-width="0.6"/><text x="55" y="37.5" text-anchor="end" fill="#5b5b5b">0</text><line x1="62" y1="274" x2="658" y2="274" stroke="#1a1a1a" stroke-width="1"/><line x1="62" y1="274" x2="62" y2="34" stroke="#1a1a1a" stroke-width="1"/><polyline points="62.0,44.3 85.8,48.8 109.7,54.2 133.5,60.3 157.4,67.3 181.2,75.1 205.0,83.8 228.9,93.2 252.7,103.5 276.6,114.6 300.4,126.6 324.2,139.3 348.1,152.9 371.9,167.3 395.8,182.5 419.6,198.6 443.4,215.4 467.3,233.1 491.1,251.6 515.0,271.0 538.8,291.1 562.6,312.1 586.5,333.9 610.3,356.6 634.2,380.0 658.0,404.3" fill="none" stroke="#9c3b3b" stroke-width="2.4" stroke-linejoin="round"/><polyline points="62.0,37.4 85.8,38.9 109.7,40.7 133.5,42.8 157.4,45.1 181.2,47.7 205.0,50.6 228.9,53.7 252.7,57.2 276.6,60.9 300.4,64.9 324.2,69.1 348.1,73.6 371.9,78.4 395.8,83.5 419.6,88.9 443.4,94.5 467.3,100.4 491.1,106.5 515.0,113.0 538.8,119.7 562.6,126.7 586.5,134.0 610.3,141.5 634.2,149.3 658.0,157.4" fill="none" stroke="#7a5c2e" stroke-width="2.4" stroke-linejoin="round"/><line x1="508" y1="40" x2="526" y2="40" stroke="#9c3b3b" stroke-width="2.4"/><text x="531" y="43.5" fill="#1a1a1a" font-size="10.5">3× daily-reset ETF, flat market, 12 months</text><line x1="508" y1="55" x2="526" y2="55" stroke="#7a5c2e" stroke-width="2.4"/><text x="531" y="58.5" fill="#1a1a1a" font-size="10.5">2× daily-reset ETF</text><text x="360" y="312" text-anchor="middle" fill="#5b5b5b" font-size="10.5">Realized volatility of the underlying (%)</text><text transform="translate(14,154) rotate(-90)" text-anchor="middle" fill="#5b5b5b" font-size="10.5">Return in a flat market (%)</text></svg>